<?xml version="1.0" encoding="utf-8"?>
<!-- Generator: Adobe Illustrator 26.2.1, SVG Export Plug-In . SVG Version: 6.00 Build 0)  -->
<svg version="1.1" id="Layer_1" xmlns="http://www.w3.org/2000/svg" xmlns:xlink="http://www.w3.org/1999/xlink" x="0px" y="0px"
	 viewBox="0 0 500 500" style="enable-background:new 0 0 500 500;" xml:space="preserve">
<style type="text/css">
	.st0{fill:#F88D30;stroke:#F88D30;stroke-width:1.9565;stroke-miterlimit:10;}
	.st1{fill:#F9A459;}
	.st2{fill:#0528F2;}
	.st3{fill:#3753F5;}
</style>
<circle class="st0" cx="250" cy="250" r="225"/>
<path class="st1" d="M250,25C125.7,25,25,125.7,25,250s100.7,225,225,225s225-100.7,225-225S374.3,25,250,25z M250,471.2
	c-122.2,0-221.2-99-221.2-221.2S127.8,28.8,250,28.8s221.2,99,221.2,221.2S372.2,471.2,250,471.2z"/>
<path class="st2" d="M367.3,188.9H134.7v-3.8c0-14,11.3-25.3,25.3-25.3H342c14,0,25.3,11.3,25.3,25.3V188.9z"/>
<path class="st3" d="M342,159.8h-6.1c14,0,25.3,11.3,25.3,25.3v3.8h6.1v-3.8C367.3,171.2,356,159.8,342,159.8z"/>
<path class="st2" d="M352.3,139.7H149.7v-5.5c0-13,10.6-23.6,23.6-23.6h155.4c13,0,23.6,10.6,23.6,23.6V139.7z"/>
<path class="st3" d="M328.7,110.6h-4.6c13,0,23.6,10.6,23.6,23.6v5.5h4.6v-5.5C352.3,121.1,341.7,110.6,328.7,110.6z"/>
<path class="st2" d="M261.1,414h-20.6c-4.9,0-8.8-4-8.8-8.8V217.8c0-4.9,4-8.8,8.8-8.8h20.6c4.9,0,8.8,4,8.8,8.8v187.3
	C269.9,410,265.9,414,261.1,414z"/>
<path class="st3" d="M259.6,209H255c5.7,0,10.3,3.4,10.3,7.6v189.9c0,4.2-4.6,7.6-10.3,7.6h4.6c5.7,0,10.3-3.4,10.3-7.6V216.6
	C269.9,212.4,265.3,209,259.6,209z"/>
</svg>
