<svg id="Layer_1" data-name="Layer 1" xmlns="http://www.w3.org/2000/svg" viewBox="0 0 64 64"><defs><style>.cls-1{fill:#0528f2;}</style></defs><path class="cls-1" d="M61.16,29a2.87,2.87,0,0,0-3.37-2.26l-7.86,1.53-3-7.38h0c0-.05-.05-.11-.08-.17l0,0-.09-.16,0,0-.09-.15,0,0a1,1,0,0,0-.11-.15l0,0L46.37,20h0l-.13-.13,0,0-.12-.09L46,19.66l-.1-.08-.08,0-.06,0a2.31,2.31,0,0,0-.35-.18h0L45,19.18H45l-.13,0-.14,0h-.06l-.17,0h0a1.47,1.47,0,0,0-.21,0h0l-11.18.22a2.85,2.85,0,0,0-2.58,1.74l-3.8,8.89A2.87,2.87,0,0,0,32,32.19L35,25l4.88-.1L35,36.43l-5.83,8.65-8.58,7.29a2.87,2.87,0,1,0,3.72,4.37l8.88-7.54a2.61,2.61,0,0,0,.52-.58l5-7.48L44,43.28l-4.23,5A2.87,2.87,0,1,0,44.09,52l6.8-8a2.86,2.86,0,0,0,.6-2.54,2.89,2.89,0,0,0-1.7-2L41.39,36l2.82-6.6,1.28,3.19a2.87,2.87,0,0,0,2.66,1.79,2.65,2.65,0,0,0,.56,0l10.18-2A2.88,2.88,0,0,0,61.16,29Z"/><path class="cls-1" d="M47.1,18.55a6,6,0,1,0-4.85-7A6,6,0,0,0,47.1,18.55Z"/><path class="cls-1" d="M25.66,23.66a.83.83,0,0,0,.78-.86.81.81,0,0,0-.86-.78l-17.22.82,17.22.82Z"/><path class="cls-1" d="M22.87,27.57a.82.82,0,0,0-.08-1.64l-17.21.82,17.21.82Z"/><path class="cls-1" d="M20.08,31.48A.82.82,0,0,0,20,29.84l-17.21.82L20,31.48Z"/></svg>